<svg width="28" height="21" viewBox="0 0 28 21" xmlns="http://www.w3.org/2000/svg">
  <path d="M4.69531 20.8281H23.5977C25.8359 20.8281 27.1367 19.5273 27.1367 17.0312V4.08203C27.1367 1.58594 25.8242 0.273438 23.293 0.273438H4.40234C2.16406 0.273438 0.851562 1.57422 0.851562 4.08203V17.0312C0.851562 19.5391 2.16406 20.8281 4.69531 20.8281ZM12.6641 10.9727L4.10938 2.51172C4.28516 2.47656 4.48438 2.45312 4.69531 2.45312H23.293C23.5273 2.45312 23.7266 2.47656 23.9141 2.52344L15.3594 10.9727C14.8672 11.4648 14.4453 11.6641 14.0117 11.6641C13.5781 11.6641 13.1562 11.4531 12.6641 10.9727ZM3.00781 4.22266L9.40625 10.5156L3.00781 16.8555V4.22266ZM18.6172 10.5156L24.9922 4.25781V16.832L18.6172 10.5156ZM4.69531 18.6602C4.47266 18.6602 4.27344 18.6367 4.08594 18.5898L10.8242 11.9102L11.4688 12.5547C12.3125 13.3867 13.1445 13.7383 14.0117 13.7383C14.8789 13.7383 15.7109 13.3867 16.5547 12.5547L17.1992 11.9102L23.9258 18.5781C23.7383 18.6367 23.5273 18.6602 23.293 18.6602H4.69531Z"/>
</svg>
