<svg width="28" height="28" viewBox="0 0 28 28" fill="none" xmlns="http://www.w3.org/2000/svg">
<path d="M7.06049 20.96C7.5224 21.4219 8.30658 21.4111 8.75776 20.96L13.9999 15.7285L19.2314 20.96C19.6826 21.4111 20.4667 21.4219 20.9287 20.96C21.3906 20.498 21.3798 19.7139 20.9287 19.2627L15.6972 14.0205L20.9287 8.78906C21.3798 8.33789 21.3906 7.55371 20.9287 7.0918C20.4667 6.62988 19.6826 6.64062 19.2314 7.0918L13.9999 12.3232L8.75776 7.08105C8.30658 6.64062 7.5224 6.62988 7.06049 7.0918C6.59858 7.55371 6.60932 8.33789 7.06049 8.78906L12.2919 14.0205L7.06049 19.2627C6.60932 19.7139 6.59858 20.498 7.06049 20.96Z" fill="#F3F4F7"/>
<path d="M8.75776 20.96L8.58116 20.783L8.58098 20.7832L8.75776 20.96ZM13.9999 15.7285L14.1767 15.5517L14.0001 15.3751L13.8233 15.5516L13.9999 15.7285ZM20.9287 19.2627L20.7517 19.4393L20.7519 19.4395L20.9287 19.2627ZM15.6972 14.0205L15.5204 13.8437L15.3438 14.0203L15.5203 14.1971L15.6972 14.0205ZM13.9999 12.3232L13.8232 12.5L13.9999 12.6768L14.1767 12.5L13.9999 12.3232ZM8.75776 7.08105L8.93454 6.90427L8.93239 6.90216L8.75776 7.08105ZM12.2919 14.0205L12.4689 14.1971L12.6453 14.0203L12.4687 13.8437L12.2919 14.0205ZM7.06049 19.2627L7.23727 19.4395L7.23745 19.4393L7.06049 19.2627ZM6.88371 21.1367C7.4447 21.6977 8.38718 21.6841 8.93453 21.1367L8.58098 20.7832C8.22599 21.1382 7.60011 21.146 7.23727 20.7832L6.88371 21.1367ZM8.93435 21.1369L14.1765 15.9055L13.8233 15.5516L8.58116 20.783L8.93435 21.1369ZM13.8232 15.9053L19.0546 21.1367L19.4082 20.7832L14.1767 15.5517L13.8232 15.9053ZM19.0546 21.1367C19.602 21.6841 20.5444 21.6977 21.1054 21.1367L20.7519 20.7832C20.389 21.146 19.7632 21.1382 19.4082 20.7832L19.0546 21.1367ZM21.1054 21.1367C21.6664 20.5758 21.6528 19.6333 21.1054 19.0859L20.7519 19.4395C21.1069 19.7945 21.1147 20.4203 20.7519 20.7832L21.1054 21.1367ZM21.1056 19.0861L15.8742 13.8439L15.5203 14.1971L20.7517 19.4393L21.1056 19.0861ZM15.874 14.1973L21.1054 8.96584L20.7519 8.61229L15.5204 13.8437L15.874 14.1973ZM21.1054 8.96584C21.6528 8.41848 21.6664 7.47601 21.1054 6.91502L20.7519 7.26857C21.1147 7.63142 21.1069 8.2573 20.7519 8.61229L21.1054 8.96584ZM21.1054 6.91502C20.5444 6.35404 19.602 6.36766 19.0546 6.91502L19.4082 7.26857C19.7632 6.91359 20.389 6.90573 20.7519 7.26857L21.1054 6.91502ZM19.0546 6.91502L13.8232 12.1465L14.1767 12.5L19.4082 7.26857L19.0546 6.91502ZM14.1767 12.1465L8.93453 6.90428L8.58098 7.25783L13.8232 12.5L14.1767 12.1465ZM8.93239 6.90216C8.38528 6.36808 7.44442 6.35432 6.88371 6.91502L7.23727 7.26857C7.60039 6.90545 8.22788 6.91317 8.58312 7.25995L8.93239 6.90216ZM6.88371 6.91502C6.32273 7.47601 6.33636 8.41848 6.88371 8.96584L7.23727 8.61229C6.88228 8.2573 6.87442 7.63142 7.23727 7.26857L6.88371 6.91502ZM6.88371 8.96584L12.1152 14.1973L12.4687 13.8437L7.23727 8.61229L6.88371 8.96584ZM12.115 13.8439L6.88353 19.0861L7.23745 19.4393L12.4689 14.1971L12.115 13.8439ZM6.88371 19.0859C6.33636 19.6333 6.32273 20.5758 6.88371 21.1367L7.23727 20.7832C6.87442 20.4203 6.88228 19.7945 7.23727 19.4395L6.88371 19.0859Z" fill="#0D0D0D" fill-opacity="0.15"/>
</svg>
