<svg width="16" height="16" viewBox="0 0 16 16" fill="none" xmlns="http://www.w3.org/2000/svg">
<path d="M8 0C3.58848 0 0 3.58912 0 8C0 12.4109 3.5888 16 8 16C12.4115 16 16 12.4109 16 8C16 3.58912 12.4112 0 8 0ZM8 14.4003C4.47072 14.4003 1.59968 11.5293 1.59968 8C1.59968 4.47136 4.4704 1.60032 8 1.60032C11.529 1.60032 14.3997 4.47136 14.3997 8C14.3994 11.5293 11.5286 14.4003 8 14.4003Z" fill="#F3F4F7"/>
<path d="M5.89272 5.54706C6.18908 5.23288 6.54329 4.97885 6.93592 4.7989C7.33668 4.61478 7.77297 4.52084 8.214 4.5237C8.77368 4.5237 9.28728 4.65714 9.75544 4.92402C10.2169 5.18501 10.6101 5.55147 10.903 5.99346L12.0434 5.14066C11.6102 4.54911 11.0472 4.06463 10.3977 3.72434C9.73784 3.37426 9.00952 3.19922 8.21368 3.19922C7.558 3.19922 6.94168 3.32594 6.36504 3.58002C5.80139 3.82378 5.28949 4.17297 4.85688 4.60882C4.42489 5.04728 4.08002 5.56371 3.84056 6.13074C3.59128 6.71122 3.4668 7.3349 3.4668 7.99954C3.4668 8.66354 3.59128 9.28658 3.84056 9.86866C4.07976 10.4354 4.42467 10.9515 4.85688 11.3893C5.28952 11.8254 5.80139 12.175 6.36504 12.4194C6.942 12.6722 7.55832 12.7992 8.21368 12.7992C9.00952 12.7992 9.73752 12.6242 10.3977 12.2738C11.0475 11.934 11.6106 11.4494 12.0434 10.8575L10.903 10.0059C10.6097 10.4473 10.2165 10.8133 9.75544 11.0744C9.28728 11.341 8.77368 11.4744 8.214 11.4744C7.77295 11.4774 7.33663 11.3835 6.93592 11.1992C6.54323 11.0194 6.189 10.7653 5.89272 10.4511C5.59576 10.1375 5.3596 9.76914 5.18456 9.34994C5.00952 8.93074 4.92216 8.47986 4.92216 7.99954C4.92216 7.51826 5.00952 7.06802 5.18456 6.6485C5.3596 6.22898 5.59576 5.86194 5.89272 5.54706Z" fill="#F3F4F7"/>
</svg>
