<svg width="150" height="150" viewBox="0 0 150 150" fill="none" xmlns="http://www.w3.org/2000/svg">
<path d="M150 75.0188C149.994 59.0085 144.879 43.4178 135.399 30.5156L135.475 30.439L133.016 27.4434L130.001 23.7683L129.891 23.8784C129.283 23.2276 128.67 22.5816 128.048 21.9643C113.978 7.90052 94.8982 0 75.0038 0C55.1094 0 36.0295 7.90052 21.9595 21.9643C21.3852 22.5385 20.8205 23.1271 20.2654 23.7205L20.1601 23.6104L17.1451 27.2616L14.6613 30.2763L14.7331 30.3481C5.16487 43.2638 0 58.9119 0 74.9853C0 91.0587 5.16487 106.707 14.7331 119.622L14.6518 119.704L17.1403 122.709L20.1553 126.365L20.2701 126.255C20.8285 126.858 21.398 127.45 21.9786 128.03C29.0844 135.136 37.5457 140.741 46.8601 144.514C56.1744 148.286 66.1519 150.149 76.2 149.991C86.2482 149.833 96.1621 147.657 105.353 143.594C114.544 139.531 122.825 133.662 129.704 126.336L129.809 126.442L132.819 122.809L135.318 119.79L135.241 119.713C144.821 106.78 149.995 91.1131 150 75.0188ZM141.386 75.0188C141.378 88.8384 137.066 102.313 129.048 113.569L96.9844 81.4789L90.7343 75.2341L97.061 68.8649L129.225 36.703C137.131 47.9164 141.379 61.2989 141.386 75.0188ZM92.2753 88.9488C90.1891 91.5216 87.5565 93.5979 84.5684 95.0273C81.5803 96.4567 78.3115 97.2033 74.999 97.213C72.0806 97.2211 69.1896 96.6501 66.4935 95.533C63.7973 94.4158 61.3497 92.7748 59.2925 90.705C58.7128 90.1206 58.1648 89.5056 57.651 88.8626L71.5294 74.9853L57.651 61.1079C58.1586 60.4715 58.7001 59.8629 59.2733 59.2848C63.4399 55.1213 69.0894 52.7825 74.9799 52.7825C80.8704 52.7825 86.5198 55.1213 90.6864 59.2848C91.3138 59.9132 91.9019 60.5797 92.4476 61.2802L78.5213 75.2054L92.2753 88.9488ZM28.0325 28.0512C40.4863 15.6022 57.375 8.60874 74.9847 8.60874C92.5943 8.60874 109.483 15.6022 121.937 28.0512C122.559 28.6733 123.176 29.3145 123.779 29.9653L104.239 49.4941L98.5684 55.1694C97.9942 54.4899 97.3944 53.8359 96.769 53.2074C90.9863 47.4292 83.1455 44.1833 74.9703 44.1833C66.7951 44.1833 58.9544 47.4292 53.1716 53.2074C52.5973 53.7817 52.047 54.3782 51.5205 54.9971L26.324 29.8074C26.8935 29.214 27.4582 28.6254 28.0325 28.0512ZM8.57876 75.0188C8.5853 61.2256 12.88 47.7756 20.8684 36.5307L52.9754 68.6352L59.3403 74.9996L52.9706 81.3641L20.854 113.478C12.8784 102.239 8.58926 88.8002 8.57876 75.0188ZM74.9847 141.4C66.2614 141.424 57.62 139.717 49.5607 136.379C41.5015 133.04 34.1842 128.137 28.0325 121.953C27.4534 121.374 26.8839 120.785 26.3192 120.178L51.5158 94.9878C52.0454 95.6099 52.6021 96.2128 53.186 96.7966C56.0419 99.6682 59.4391 101.945 63.1808 103.495C66.9225 105.045 70.9346 105.837 74.9847 105.826C79.4277 105.815 83.8163 104.848 87.8531 102.992C91.8899 101.136 95.4806 98.434 98.3818 95.0691L123.574 120.259C117.367 126.939 109.848 132.264 101.487 135.902C93.1256 139.54 84.1031 141.412 74.9847 141.4Z" fill="white"/>
</svg>
