<svg width="150" height="150" viewBox="0 0 150 150" fill="none" xmlns="http://www.w3.org/2000/svg">
<path d="M133 27.4574L99.4174 61.0382C96.9644 56.7538 93.4275 53.19 89.1618 50.7044C84.896 48.2189 80.0515 46.8991 75.1145 46.8775C70.1774 46.8559 65.3215 48.1333 61.0342 50.5814C56.7469 53.0295 53.179 56.5622 50.6886 60.825L17.1367 27.2747C18.6561 25.4339 20.2618 23.6675 21.9538 21.9756C28.9187 15.0087 37.1879 9.48201 46.2893 5.71138C55.3906 1.94075 65.1456 0 74.9971 0C84.8487 0 94.6037 1.94075 103.705 5.71138C112.806 9.48201 121.076 15.0087 128.041 21.9756C129.78 23.7217 131.433 25.5489 133 27.4574Z" fill="#3059FF"/>
<path d="M132.792 122.805C126.135 130.852 117.87 137.42 108.528 142.089C99.185 146.758 88.9702 149.424 78.5375 149.917C68.1048 150.409 57.6842 148.718 47.9431 144.95C38.202 141.182 29.3553 135.422 21.9694 128.038C20.2775 126.346 18.665 124.573 17.1321 122.718L37.1718 102.679L50.689 89.1628C53.1618 93.4038 56.7012 96.9241 60.9555 99.374C65.2099 101.824 70.0312 103.118 74.9406 103.129C79.85 103.139 84.6766 101.865 88.9412 99.4325C93.2057 97.0004 96.7598 93.4949 99.2503 89.2643L132.792 122.805Z" fill="#653EC3"/>
<path d="M150 75.0067C150.027 92.4606 143.938 109.372 132.792 122.805L99.2508 89.2643L85.2209 75.2351L99.4335 61.0232L133.016 27.4424C144.029 40.8438 150.034 57.6608 150 75.0067Z" fill="#E12A61"/>
<path d="M64.8665 74.9864L37.1723 102.679L17.1325 122.718C6.05702 109.285 0 92.4169 0 75.0067C0 57.5965 6.05702 40.7286 17.1325 27.2952L64.8665 74.9864Z" fill="#3BC1FF"/>
</svg>
