<svg width="64" height="64" viewBox="0 0 64 64" fill="none" xmlns="http://www.w3.org/2000/svg">
<rect x="3.5" y="3.5" width="57" height="57" rx="28.5" fill="#0D0D0D" stroke="#262728" stroke-width="3"/>
<path d="M22.6953 42.8281H41.5977C43.8359 42.8281 45.1367 41.5273 45.1367 39.0312V26.082C45.1367 23.5859 43.8242 22.2734 41.293 22.2734H22.4023C20.1641 22.2734 18.8516 23.5742 18.8516 26.082V39.0312C18.8516 41.5391 20.1641 42.8281 22.6953 42.8281ZM30.6641 32.9727L22.1094 24.5117C22.2852 24.4766 22.4844 24.4531 22.6953 24.4531H41.293C41.5273 24.4531 41.7266 24.4766 41.9141 24.5234L33.3594 32.9727C32.8672 33.4648 32.4453 33.6641 32.0117 33.6641C31.5781 33.6641 31.1562 33.4531 30.6641 32.9727ZM21.0078 26.2227L27.4062 32.5156L21.0078 38.8555V26.2227ZM36.6172 32.5156L42.9922 26.2578V38.832L36.6172 32.5156ZM22.6953 40.6602C22.4727 40.6602 22.2734 40.6367 22.0859 40.5898L28.8242 33.9102L29.4688 34.5547C30.3125 35.3867 31.1445 35.7383 32.0117 35.7383C32.8789 35.7383 33.7109 35.3867 34.5547 34.5547L35.1992 33.9102L41.9258 40.5781C41.7383 40.6367 41.5273 40.6602 41.293 40.6602H22.6953Z" fill="#F3F4F7"/>
</svg>
