<svg width="160" height="34" viewBox="0 0 160 34" fill="none" xmlns="http://www.w3.org/2000/svg">
<path d="M14.3113 5.36154C12.4856 5.2453 11.2046 5.50684 10.4685 6.14615C9.73228 6.78547 9.36419 7.90427 9.36419 9.50257V9.54615H14.3113V14.7333H9.36419V33.6949H3.13612V14.7333H0V9.54615H3.13612V8.97949C3.13612 6.10256 3.96064 3.89402 5.60968 2.35385C7.28817 0.784616 9.76173 0 13.0304 0C13.5899 0 14.0168 0.0145279 14.3113 0.0435891V5.36154Z" fill="white"/>
<path d="M40.1246 9.54615V33.6949H33.8966V28.8128C33.2487 30.4402 32.1739 31.7188 30.6721 32.6487C29.1997 33.5496 27.4918 34 25.5483 34C22.7214 34 20.4686 33.0846 18.7902 31.2538C17.1117 29.4231 16.2724 26.8658 16.2724 23.5821V9.54615H22.4563V22.8846C22.4563 24.8026 22.9569 26.2991 23.9581 27.3744C24.9593 28.4205 26.3139 28.9436 28.0218 28.9436C29.8181 28.9436 31.2463 28.3769 32.3064 27.2436C33.3665 26.1103 33.8966 24.4829 33.8966 22.3615V9.54615H40.1246Z" fill="white"/>
<path d="M57.1614 9.19744C59.9883 9.19744 62.2411 10.1128 63.9195 11.9436C65.598 13.7744 66.4373 16.3462 66.4373 19.659V33.6949H60.2534V20.3564C60.2534 18.4385 59.7528 16.9564 58.7516 15.9103C57.7504 14.835 56.3811 14.2974 54.6437 14.2974C52.8769 14.2974 51.4634 14.8641 50.4033 15.9974C49.3432 17.1308 48.8131 18.7581 48.8131 20.8795V33.6949H42.5851V9.54615H48.8131V14.3846C49.461 12.7573 50.5211 11.4932 51.9934 10.5923C53.4952 9.66239 55.2179 9.19744 57.1614 9.19744Z" fill="white"/>
<path d="M83.6114 28.4205V33.6949H80.3428C77.6042 33.6949 75.4987 33.041 74.0264 31.7333C72.5834 30.4256 71.862 28.2462 71.862 25.1949V14.7333H68.4608V9.54615H71.862V1.43846H78.0901V9.54615H83.5672V14.7333H78.0901V25.2821C78.0901 26.4444 78.3256 27.2581 78.7968 27.7231C79.268 28.188 80.063 28.4205 81.182 28.4205H83.6114Z" fill="white"/>
<path d="M109.781 20.7051C109.781 21.3154 109.707 22.0128 109.56 22.7974H91.6267C91.715 24.9479 92.304 26.5316 93.3935 27.5487C94.483 28.5658 95.8376 29.0744 97.4572 29.0744C98.9001 29.0744 100.093 28.7256 101.035 28.0282C102.007 27.3308 102.625 26.3863 102.89 25.1949H109.472C109.148 26.8803 108.456 28.3915 107.396 29.7282C106.336 31.065 104.966 32.1111 103.288 32.8667C101.639 33.6222 99.7982 34 97.7664 34C95.3812 34 93.261 33.506 91.4058 32.518C89.5506 31.5009 88.1077 30.0624 87.0771 28.2026C86.0464 26.3427 85.5311 24.1487 85.5311 21.6205C85.5311 19.0923 86.0464 16.8983 87.0771 15.0385C88.1077 13.1496 89.5506 11.7111 91.4058 10.7231C93.261 9.73504 95.3812 9.24102 97.7664 9.24102C100.181 9.24102 102.287 9.73504 104.083 10.7231C105.909 11.7111 107.307 13.0769 108.279 14.8205C109.28 16.535 109.781 18.4966 109.781 20.7051ZM103.509 20.0949C103.597 18.1188 103.067 16.6222 101.918 15.6051C100.799 14.588 99.4154 14.0795 97.7664 14.0795C96.0879 14.0795 94.6745 14.588 93.526 15.6051C92.3776 16.6222 91.7445 18.1188 91.6267 20.0949H103.509Z" fill="white"/>
<path d="M135.89 20.7051C135.89 21.3154 135.816 22.0128 135.669 22.7974H117.736C117.824 24.9479 118.413 26.5316 119.503 27.5487C120.592 28.5658 121.947 29.0744 123.566 29.0744C125.009 29.0744 126.202 28.7256 127.144 28.0282C128.116 27.3308 128.734 26.3863 128.999 25.1949H135.581C135.257 26.8803 134.565 28.3915 133.505 29.7282C132.445 31.065 131.075 32.1111 129.397 32.8667C127.748 33.6222 125.907 34 123.875 34C121.49 34 119.37 33.506 117.515 32.518C115.66 31.5009 114.217 30.0624 113.186 28.2026C112.155 26.3427 111.64 24.1487 111.64 21.6205C111.64 19.0923 112.155 16.8983 113.186 15.0385C114.217 13.1496 115.66 11.7111 117.515 10.7231C119.37 9.73504 121.49 9.24102 123.875 9.24102C126.29 9.24102 128.396 9.73504 130.192 10.7231C132.018 11.7111 133.416 13.0769 134.388 14.8205C135.389 16.535 135.89 18.4966 135.89 20.7051ZM129.618 20.0949C129.706 18.1188 129.176 16.6222 128.027 15.6051C126.909 14.588 125.524 14.0795 123.875 14.0795C122.197 14.0795 120.783 14.588 119.635 15.6051C118.487 16.6222 117.854 18.1188 117.736 20.0949H129.618Z" fill="white"/>
<path d="M152.403 33.6949L144.319 23.1462V33.6949H138.091V1.43846H144.319V19.5718L152.358 9.54615H159.735L149.443 21.5769L160 33.6949H152.403Z" fill="white"/>
</svg>
